<mxfile host="app.diagrams.net" agent="Mozilla/5.0 (Macintosh; Intel Mac OS X 10_15_7) AppleWebKit/537.36 (KHTML, like Gecko) Chrome/138.0.0.0 Safari/537.36" version="28.0.7">
  <diagram name="第 1 页" id="eZMxeha7G8zjdgYk1moX">
    <mxGraphModel dx="2296" dy="1251" grid="1" gridSize="10" guides="1" tooltips="1" connect="1" arrows="1" fold="1" page="1" pageScale="1" pageWidth="827" pageHeight="1169" math="0" shadow="0">
      <root>
        <mxCell id="0" />
        <mxCell id="1" parent="0" />
        <mxCell id="Ld-TGm4B5Je8mxVcvhwd-11" style="edgeStyle=orthogonalEdgeStyle;rounded=0;orthogonalLoop=1;jettySize=auto;html=1;exitX=0.75;exitY=0.1;exitDx=0;exitDy=0;exitPerimeter=0;" edge="1" parent="1" source="Ld-TGm4B5Je8mxVcvhwd-1" target="Ld-TGm4B5Je8mxVcvhwd-10">
          <mxGeometry relative="1" as="geometry" />
        </mxCell>
        <mxCell id="Ld-TGm4B5Je8mxVcvhwd-14" value="新链路" style="edgeLabel;html=1;align=center;verticalAlign=middle;resizable=0;points=[];" vertex="1" connectable="0" parent="Ld-TGm4B5Je8mxVcvhwd-11">
          <mxGeometry x="-0.0742" relative="1" as="geometry">
            <mxPoint as="offset" />
          </mxGeometry>
        </mxCell>
        <mxCell id="Ld-TGm4B5Je8mxVcvhwd-1" value="Actor" style="shape=umlActor;verticalLabelPosition=bottom;verticalAlign=top;html=1;" vertex="1" parent="1">
          <mxGeometry x="100" y="330" width="30" height="60" as="geometry" />
        </mxCell>
        <mxCell id="Ld-TGm4B5Je8mxVcvhwd-2" value="DNS" style="strokeWidth=2;html=1;shape=mxgraph.flowchart.database;whiteSpace=wrap;" vertex="1" parent="1">
          <mxGeometry x="354" y="130" width="60" height="80" as="geometry" />
        </mxCell>
        <mxCell id="Ld-TGm4B5Je8mxVcvhwd-3" style="edgeStyle=orthogonalEdgeStyle;rounded=0;orthogonalLoop=1;jettySize=auto;html=1;exitX=0.5;exitY=0;exitDx=0;exitDy=0;exitPerimeter=0;entryX=0;entryY=0.5;entryDx=0;entryDy=0;entryPerimeter=0;" edge="1" parent="1" source="Ld-TGm4B5Je8mxVcvhwd-1" target="Ld-TGm4B5Je8mxVcvhwd-2">
          <mxGeometry relative="1" as="geometry" />
        </mxCell>
        <mxCell id="Ld-TGm4B5Je8mxVcvhwd-7" style="edgeStyle=orthogonalEdgeStyle;rounded=0;orthogonalLoop=1;jettySize=auto;html=1;exitX=0.5;exitY=1;exitDx=0;exitDy=0;exitPerimeter=0;" edge="1" parent="1" source="Ld-TGm4B5Je8mxVcvhwd-4" target="Ld-TGm4B5Je8mxVcvhwd-6">
          <mxGeometry relative="1" as="geometry" />
        </mxCell>
        <mxCell id="Ld-TGm4B5Je8mxVcvhwd-4" value="" style="sketch=0;points=[[0,0,0],[0.25,0,0],[0.5,0,0],[0.75,0,0],[1,0,0],[0,1,0],[0.25,1,0],[0.5,1,0],[0.75,1,0],[1,1,0],[0,0.25,0],[0,0.5,0],[0,0.75,0],[1,0.25,0],[1,0.5,0],[1,0.75,0]];outlineConnect=0;fontColor=#232F3E;fillColor=#8C4FFF;strokeColor=#ffffff;dashed=0;verticalLabelPosition=bottom;verticalAlign=top;align=center;html=1;fontSize=12;fontStyle=0;aspect=fixed;shape=mxgraph.aws4.resourceIcon;resIcon=mxgraph.aws4.elastic_load_balancing;" vertex="1" parent="1">
          <mxGeometry x="311" y="410" width="78" height="78" as="geometry" />
        </mxCell>
        <mxCell id="Ld-TGm4B5Je8mxVcvhwd-5" style="edgeStyle=orthogonalEdgeStyle;rounded=0;orthogonalLoop=1;jettySize=auto;html=1;entryX=0;entryY=0.5;entryDx=0;entryDy=0;entryPerimeter=0;exitX=0.5;exitY=0.5;exitDx=0;exitDy=0;exitPerimeter=0;" edge="1" parent="1" source="Ld-TGm4B5Je8mxVcvhwd-1" target="Ld-TGm4B5Je8mxVcvhwd-4">
          <mxGeometry relative="1" as="geometry" />
        </mxCell>
        <mxCell id="Ld-TGm4B5Je8mxVcvhwd-12" value="当前链路" style="edgeLabel;html=1;align=center;verticalAlign=middle;resizable=0;points=[];" vertex="1" connectable="0" parent="Ld-TGm4B5Je8mxVcvhwd-5">
          <mxGeometry x="0.1431" relative="1" as="geometry">
            <mxPoint as="offset" />
          </mxGeometry>
        </mxCell>
        <mxCell id="Ld-TGm4B5Je8mxVcvhwd-9" style="edgeStyle=orthogonalEdgeStyle;rounded=0;orthogonalLoop=1;jettySize=auto;html=1;exitX=0.5;exitY=1;exitDx=0;exitDy=0;" edge="1" parent="1" source="Ld-TGm4B5Je8mxVcvhwd-6" target="Ld-TGm4B5Je8mxVcvhwd-8">
          <mxGeometry relative="1" as="geometry" />
        </mxCell>
        <mxCell id="Ld-TGm4B5Je8mxVcvhwd-6" value="" style="shape=image;verticalLabelPosition=bottom;labelBackgroundColor=default;verticalAlign=top;aspect=fixed;imageAspect=0;image=data:image/png,iVBORw0KGgoAAAANSUhEUgAAAGAAAABgCAYAAADimHc4AAAACXBIWXMAAAsTAAALEwEAmpwYAAAET0lEQVR4nO2dS4hURxSGvzDjG18kxoUGBXWMkmQVFHEhgiCICxHMImQjgrjwsVAJiqDgJiIJQVEw6GLURXCrCUKLCII7hcSotC9EUMckDhrUkOnokYISBml7umrqdtWte344MIuBe6q+mf+frltVA+VVD3AaqAGfx26mSpoMfAf8B4itBnAEmBK7uZzVDawH/hw08e9WP/AtMDJ2s7lpGXC1xcS/W3VgTeymc1CP9XnxLM2HgD4vnqX5ENjnxbM0HwL7vHiW5kNgnxfNh/g+L5oPafi8aD6k4fPiWdnmQyyfl6rnQwo+L1XMhxR9XqqSD6n7vOSaD2XzecklH8rs81LmfMjJ56Vs+ZCrz0vq+VAVn5fU8qGKPi8p5IP6PPHyQX2euPlQRDMPgOPAXmtpvcD1yBP0xPa02/Z0Dvi/gOdEBfAUWGstrZlmAQeBgQ5P/mFgfJN+TJD+kQsAM/lftPnMucDNDk3+gSF6+Qi4lwOAzY7PnQr8XvDk9wFj2+hlTdkBGC+d6PHs6TYvigLwU5t9mL9gnpcZwEP89SXwoiAAOxz6uFFmAMZDh6PVwKsCAGxz6OG3KgMw2qkA4gLAerYCiAhgBHBeAcQDYPQhcEsBxANg9Kld5FIAkQAYLQmwLK4Ahql1CiAuAKMfFUBYAGMc++sCflEA4QBsAZY69jjec4IUQBNtB/4G5jj2OcOubiqAAADELn6ZTQBFLtwpgBYABLjg8TLbrN2/VgBhAAhwzKPnPQogHAABtjr2/AFwUgGEA/AKWOXY92jgkgIIA0CAl8ACx97NC/XbCiAMALGvNj9x7H++3ZGhAAIAEOAKMM5xDMvtXk0FEACAAGfsEgSOn7AVQCAAAuz3GMshBRAOgAAbHMfSZX97FEAgAAN297aLJgza7a0AhglAgGfAZ45jmgk8VgBhAAhwF/jYcVyLgY0O368AaF0XgVGOY3N5+aMAGLp+tutARUgB0F7tohgpANor8y7ga8JLAdB+/QssIqwUAG71lz1zFkoKAPe6BkwijBQAfnW2xalMFykAij8L1koKgOHVJioMwJx0jHkUSexJzRX463KZATTecxK9mY4WBMDUP57XyHTb3XqlBSB2K/lQGuuxvdC17ntse/wq4POjAXgETBviWT8UPPlvq89hh8XswD8U0QCYugMsbPKMcR2c/MF7jXrtron3vT37xn6gk1wAvF2rMUvH39urYXoLGKRrmb1DJ4B99gqdkwVekeCsZR24NEMqcmHTSjylV5aRxpWWemkfaVzqaq6tPJXAICXhaytdNwp4SfOBcD7vK80H0rjavor50Ejh8u6q5kOtUz7vq1zzoR7D532VUz70p+DzVcyHRoo+X5V8qKXu87nmQ71MPp9TPvSX2efLnA+NnHy+bPlQy9XnU8+HehV83lfd+i/N88uHhvp8vHyoqc/HyYe6+nycfOhXn4+TDw31+c5rHvCrLfN1KfUGkdEyMeo9igMAAAAASUVORK5CYII=;" vertex="1" parent="1">
          <mxGeometry x="302" y="580" width="96" height="96" as="geometry" />
        </mxCell>
        <mxCell id="Ld-TGm4B5Je8mxVcvhwd-8" value="" style="shape=image;verticalLabelPosition=bottom;labelBackgroundColor=default;verticalAlign=top;aspect=fixed;imageAspect=0;image=data:image/png,iVBORw0KGgoAAAANSUhEUgAAAGQAAABkCAYAAABw4pVUAAAAAXNSR0IArs4c6QAAAERlWElmTU0AKgAAAAgAAYdpAAQAAAABAAAAGgAAAAAAA6ABAAMAAAABAAEAAKACAAQAAAABAAAAZKADAAQAAAABAAAAZAAAAAAvu95BAAAM40lEQVR4Ae2bCdBVVR3A1RQXQEG2xKVPRJFQcUVTNDMHtTSXqSyDMsdc2nUyS62spmlxJhccrGk0S3TUXEjNqUkj1FxKRXHHEAwFNBVBRAXRfj9617mcudu733vve4/v/md+37n3nPM/95z/Ofd/lvu+ddZZ+2VUJzVxvU6qbMm6rkTvyJK6lVqTLHAn5XbE4OuISjagk4ZTxscbUE5VRIMs8CLlXN+gsqpiummBEei/C69Dn26W1XT13uCyDqpZcRPCsU23aDcfsLZ3yLrY59SYjXxb2lrW9g5xubt7rAc2jV235eXa3CGbY/GLA6u7J6mkByygq7oBnMzjHNwDdakeiQV+HnSEnfIODIFKWmyB03he/K2Irh9ocT2qx2GBM1M6w045ubJQ6yzgnPEziN6GMFxKWv/WVad3P2lDmj8Vwk6I33+/d5uoda0fxqPuyumMOaRv1Loq9d4njaPp8yH+JoTXrqwOLWmivuiNgX1Bl1hJhgWOJ+0NCDsgvHdeKSIa/xD4HtwEC8CydIVDoZIUC2xA/GQIDZ90/3fyrQ9poqFPhJsh7Fw75GNQSYYFBpJ2OyQZP4x7inyDE8p6H3Geb/0FVkGo5/0fIEmX6EoiC3hK+zgkGTCM82PU9pFiLfTM7lNgR4X5o/slpJ0EleRYYDzp/4XIcFnhy+TbLSjPbyD/ytGfTvo2gV51m2CBzxD3JmR1QpT2Cvn2iJXhysid+wqI8oShqzAnfl1ZJTkWmET62xAaMel+Mfn2ipXnp9orcnR1UUfHdKrLDAscS1rRzniVvHvHynK+uBqSOi6KcxW1S0ynusywgCN9OUTGywo9o9onKCvp6D1exmzybxvoVLcpFvATa97uOzLuMvLuH5QzjvusN2sO6cMCneo2wwK/JC0yeFboRH9wQjn3Z+g7z4xO0KmiUizgrwv95p3VEaa5MvochOI8kqVb7bxDi+Xcn55j0MjY56aU8+sM/VtTdKroDAtotMjoaeEM8qT9UmZWhn7HfC1Ma1yG3ZqWtFVOya+T/gXQZYXivmPHMDJ2756jI6SdOiTPYJeRYV5KpiHEexKcJjukJVTx6Ra4haQ0V+VbMSJddZ0BGbqWOTNDt0pKscDZxKd1yNMpOlG0Z1G6tDR94/eMMldhMQvsTLY0g/6jQBF+6UvTN75aaRUwYpjljhSjusPOEw8jszrEtI/mFVKlr2mBQ7lNM2rWKspS/Fyra0vTN96lse6tkjos4DfuJKNeVKCMY1J04+UdX6CcKkvMAp7Eum+IG9HrpbAZ5Mk1ZAh14/fPkJ61RM4rv1emfzrFqKcXsIY/UFiYoh91THWuVcCQYZbzE4w6l7gic8CRCbpRZxj+Diqp0wKeIiS5H1dTReRyMsU7IX7tr08qKWGBDdGZDqExi7wlg9B7LdCNyvFXLJWUtIDHIvdBZEzDiQXLujDQi8rwM24l3bBAP3Rvg7hBPeHNkyPIEOnEw6l5ilV6vgV0XzdAZNjT8lVWH8lH+eNh0uffAsVVWUILOHdcABr3FXCeyJLxJMY7wuu/ZilUaeUs8EXU/KHDJTnq55Ae75CXuA9/95tTRGuT123t41afN3XxzC3AHzW8H9zIOUeI/wf4ADhfzIJVkCb+HutKmAj3JGRyjnF521VL83jeDaEHmGXEeh4Ge4B1VxbB3TANHCBtLR5P7AffhavhYXgL4iPW6xVwM5wAdlA94grMtyDpKORM4qNn/Ztrj/fLyBiUroKVEJUXhi6jj4O2FF3CFNA9hBWP379M+g9gKHRXwhXXeAp0xL4BP4W+UEZGonQGOKgmwyMQb0N47SBoG3Fn/WN4G8KKhve6jXrfBlQKyU7k0o147jWokMaamTbitmvNqDXu7Gzdatgm7/3UvD+0hTiSkiqZFHcWeYvstss0bEiOkgNnC9gdDoeT4Tz4E8wBv7/7lmfJxiT6BTKpbTOyFPPSGjmpP8jDdst7YCx9MddPgf5dXoDXaywllKxJneTVx/EaWJek23Kvshk4txjKwNq9oR0xDPyYlSRXEHkKLE9KDOIsezaELte3ZDjYnh6VG3l60ojphDg7wI6oV5yfktrnm9fjoquYCUkVbOc46/zBktZzZZXUthNLlpf6s8wy5bn02wu+Ao+VKaBFOit4zqNwHXwb9oHHoYy4AGiopPnSsg9xhTWlxljCg+DDsCt8AFolzkXzQT8+F56soeG9t56NkLQ368WyhTdyUs+rQ38yjAKXu7o3J9ehtWvvXXW5wesHSbKYyOU1nPBfq10vIdTwz8GiWriMsBXivmSnhAftQJy/gOko2ZjaToDvwFYdVfP/V/ZDBO8m4BvYUbIltZ0Mr4INugQ6Uf5MpZM65NxOasyXqKyuJt6Qs1vcgEZsSD8btCFqj2518xa3p/TjzkhphKseO8WNWzNkEIUeBj+B+8EztFPBDWUZ2QYlDR91QjycVKbAuE6rJnUncFc9Ttpp8hYJnkHdCx5hiDv458FGJ4n1d1e+KWwGI2G7gG25T5J/EulmcGZSYkqc895tsG9C+sXEfS0hvi2jtqdW8ZFU5tovhGLHLoDQ9ZUp0+XvBWCH5olbhD9C0nPsjFYN7rx6Fk73AC+pMe0Q9wh1czmeJs47v4ewru53TkpT6oT4I6jkLAgb1hP3ziVT4XDoA2nibvxGCOt4M3Ej0pQ6Lf4AKjwZ5kHY0Gbdu8y+Hc6BvcFRnyfOfXdCVCfnuWthPDRF2sHvuWrZD3aF0TW2JvQovYxo+LnwdA2PSx6A2aBhi8o4Ml4Hw8GFhvOHbusFaJq0Q4fEG+dKyYlW3zwYtoAB0K8GwWrpz1+PR94Ej1M8SlkIHnAa113ZiQKOgkdhBiyGXiEOCOcVfbQ+fRHYKY0Wn2MHV5JhAf3z3yDyz4bzoKyrQnUNcaI+EC6EZ0H//yNoVPkUtfaI6/4nIN4Z0fVjxLuTHgXrQZ7ozjwGnwDq/QYeBE8AojLjoc/dH9pSfJV7Qs7ioR5l5Inzgf7bidrQ+aUvOMo3gUFQxsXZQXbcmWDZvV5+iwXio7anrhdQj8PbqTc8Duiu6DIOhDGwI+iOZBW8VGMm4RXwDiiu5T8PRVyS+Zshrs6uhPtKFu4+xja2hejqDoFbwcmyyAjXrx8AkUzi4hUootuoPA4IO+AUKOPqUHtPHGAujXtctqMG0yHPSI4eN2RTQF99EnwD9oVIXIp+C5p5nDKX8q+CE8B9TaPkUgrSBr9oVIGWU++kvgs6t8EQlVNkJfEXgcvN+Sl5kqI93PMNGgujYQQMq5FVT5/nm+Ye5jn4D7iSegoehhegGTKDQqM3fiLXur+WivONO9e8N+PoJtRqAGV6hGEnOcoHgqusnpLxPFj3F9liWk9UxLcjqkBa6Gjt0xOVa+Ezd+VZrs7iNmj522F7RwaViFcofv1DM6+FsgFtcr5bBvH2eu0CpeWiH38Iwsok3d9APpfAa4NsTiO+CfMgqa33EN+I7QPF1C+ukN6ApIqFcfrYu8HGbAWdJA6mL8M08LQgbFt076JhKPSoHMrTXdVElSoazkZnKnwd9oHu7gMooiGyNaVMgNPB+j0PeW1ysF0GHuPkiZ8KCnda1nIy60FdJJ4PR2VlKpDmTv4ZmFMLXaIaZ+i3Da/12a9BPbIeme3wTaEfDAbfUpfWUdjFtcvregfGdHTOAd/+PNmWDDfBJ2BuXuZGpO9HIdfD25A3qrqbruvwzXwO7MAk7Eg/bnX3WaH+Esq8FMZBUXH576Cyni2XLXniaeAE14rOCQ3WjHs793I4BurZ8+ieroGoTl/lukfFI/Fj4UK4C5KWiVFl2yV0ED0EU2ASbA/1iq5RV7YYonbp1taHwlJ2Din8ADJ6KjoK9oCdoStG1hEM2Rour1Li0+ACI8J7j1kcOGVkIEonwhkQb4/lHwC+aYWlFR2SVRlXKV2gy7NhMiAIuX3vnzq9jsSN2kpYCqtAYxsuARcBC0EfLl6/CC7ZGyW7UZBL4+MgdGm67qPAZ1bSRAuMoexz4TGI3FI8tMNN7wNtKfpP/fERcDA4+jtJnA8/Cb8CXVvc+PFr9yW3wA7QLWmlyxpLTSfCXvAyPAmOtCdq1410JxRZt/RHwzluT3C+M3TH7p4mTXSZV8N58EhapnriW9khUb2c5G3sBHDXvzdYj0UwD54Fv2nIAnBzaAcaiiOzXvGZjnaXpMPBDaLH+NuBb/Co2j1Brvj8e+HaGtaxYdITHRJWXjemO/sI+PbsAhtCkuganLQdmcvgLVgOodguy3XUuxzdGLojDoi7YDpMAwdNU6QdOiRsmKsnOyVyHaO5HgmO6laIHa4rfRRmwR216zJvJqr1STt2SFoL+pJgx+hmukD3Mxh0RVHom2W+PhDJRly8CS6PV9RC5yv3B8/DQtDteO3eYT70mPwP5iRECrSYve4AAAAASUVORK5CYII=;" vertex="1" parent="1">
          <mxGeometry x="300" y="800" width="100" height="100" as="geometry" />
        </mxCell>
        <mxCell id="Ld-TGm4B5Je8mxVcvhwd-15" style="edgeStyle=orthogonalEdgeStyle;rounded=0;orthogonalLoop=1;jettySize=auto;html=1;exitX=0.5;exitY=1;exitDx=0;exitDy=0;entryX=1;entryY=0.5;entryDx=0;entryDy=0;" edge="1" parent="1" source="Ld-TGm4B5Je8mxVcvhwd-10" target="Ld-TGm4B5Je8mxVcvhwd-8">
          <mxGeometry relative="1" as="geometry" />
        </mxCell>
        <mxCell id="Ld-TGm4B5Je8mxVcvhwd-10" value="" style="shape=image;verticalLabelPosition=bottom;labelBackgroundColor=default;verticalAlign=top;imageAspect=0;image=data:image/png,iVBORw0KGgoAAAANSUhEUgAAAUQAAAEYCAIAAACrxBgdAAAAAXNSR0IArs4c6QAAAERlWElmTU0AKgAAAAgAAYdpAAQAAAABAAAAGgAAAAAAA6ABAAMAAAABAAEAAKACAAQAAAABAAABRKADAAQAAAABAAABGAAAAAAZNIQxAAA7DElEQVR4Ae196XMbSXYn6sDFEyRISjxEkaKkpo4WdbS61ZfUPRvujV63HRv2frE/eP4wfxp/sCO84/A13tkY79o7PdNStzQ6SIkUJZGieJ/gTZAA6thfISGyCKAKBRSqUABfBUPKysrKfPnLesjMl+/gFFn20UUIEALVjwBf/V2gHhAChICGADEzfQeEQI0gQMxcIwNJ3SAEiJnpGyAEagQBYuYaGUjqBiFAzEzfACFQIwgQM9fIQFI3CAFiZvoGCIEaQYCYuUYGkrpBCBAz0zdACNQIAsTMNTKQ1A1CgJiZvgFCoEYQIGaukYGkbhACxMz0DRACNYIAMXONDCR1gxAgZqZvgBCoEQSImWtkIKkbhAAxM30DhECNIEDMXCMDSd0gBIiZ6RsgBGoEAWLmGhlI6gYhQMxM3wAhUCMIEDPXyEBSNwgBYmb6BgiBGkGAmLlGBpK6QQgQM9M3QAjUCALEzDUykNQNQoCYmb4BQqBGECBmrpGBpG4QAsTM9A0QAjWCgFgj/aBuGCCgqqpPkX1yEs85MejjBYOClF31CBAzV/0QmnQAnKwoiprc5+IbHMf5GqJcoM6kPD2qagSImat6+AoQr+7vS7GYsrHKbS4L4bAwEOJaiZkLgFa9j4mZq3fsClOubG5KT5+l3rxRVpbErs5wpItvbS/8GpWoTgSImatz3ApSrSo+WVZisdTIaGJ4RNnaVHbigeuLwqlTXLiO8/sLVkAFqg4BYuaqGzJrBMuymogrqyuJF+OJ5+Ocn+Obm6R3b/n2FrHnLOdvtlYLlaomBIiZq2m0rNOq7O5KM1PJsXFpekZeWeXCQWlxJfF8jKuv9zVExIZGyMM0kRhdNYQAMXMNDaauK/JaLPHb+we/uy+vxlQcTe0npPmlgx8fq5yg9p/3nT4tiiIxsw6wWkiS0kgtjKK+D2oqpWxvybNziZHR5NhrZWfHJ6tqSlJ245iipdl5aeqdvLioHhzo36J0DSBAzFwDg3isC+p+XJqbTk1OpKbmpNV1Nampi+DiRIGvr+fklDI6Kg+PqJubLJ/+rRkEaJldM0OpdQRaIvLWVmpsPPl8VFpaVuL7R93jeC7gx8lzauwVL/iV/j5fR7tPEHwc/aAfgVTVKRrIqh6+Y8Qzfa/U2vr+w6cHj57KG3nmXmV7N/nyDUTcEHRD3I3jq2NV0E01I0DMXM2jd5x2Td9rYUF6M5kaf5OansPtsecq9DpTys6evLoGETcE3anJSQi9j5Whm2pGgJbZ1Tx6x2nP6Hs9fiLNL6v7CU2IrbtUSVb29pCBBETcB9//wKkq920TH2nRlaJkFSNAzFzFg3dEuiKrUkJZXU4OP08OjyqxdYivj56yFBTC9vZ9POfjferBfnL8Dd/c7L96VehoJ52wbKyq856W2dU5bsepBieruzFl8R3kXuBSrKWPP9fuMFFr03UyBTGYT+Dk9S2IuyH0hugbAvDc8pRTdQjQzFx1Q5aHYHV3T56cTI6OS1Ozcmw9Twlk4bRZljhB4MMh7W5jB+JuML/Q0sw3tfJNpOCZH7YqyqWZuYoGy5BUObaxf//pwYOn8vqGYaH0A3barB04iwLE3RB6Hzx8qhR6y7xOeuoRBIiZPTIQJZKR0feaW0i+eJ0cf6vs5llgH6s6fdqsrbQ5Xjtznp5LTkzJi0tQGkNVx0rSTbUhQMxcbSN2nF4jfa/jpfLfsV20srouTU/Rzjk/RlWVS3vmqhouHbFQEcElbRroe+lKHkvCNBIybVxQF0nvorEyT46+5FsjZE11DKgqvCFmrsJBS5OscbIkJVfXDn56kjDQ98rtG1S1obCN/EOdbbZzVgNBsqbKhau6coiZq2u8jqiF2ZO8ugp9r+T4RFrfK3H0zDgFjRFV2sfRFMcLnF9Mr7S1nTMXnRDfTAptUaG93VdHfsKMEfTwE9oze3hwTEmD2ROMn6QnT+WFPPpepq9C+CXAXYH2xwts54xKtKrImsocOG8/pZnZ2+OTl7r3+l6p4eepkbH8+l55XzzMxGlzfRh3clLypSScP6MSVCU0NgTO9qhtEfKwfQhVFSVoZq6iwcqQakXfy7xX+tNmVhJKY1Adgw4J1MigTIYmzGugpx5EgGZmDw5KAZIs6XsVqCP7sZpMyLEEFMigRiZEW8jDdjZA1XBPzFwNo3ScRuv6XsffO7rTW1Ad5WLVvb4BNTKfGCIP23pYqiVNy+xqGSmNzqL1vYw6l7agUvYPYEEFmTaE26wgFMigRgZlMnlugXTCjMDzbD4xs2eHJg9hdvS99NXpLaiYTJs9ZafQZE2lx6qK0rTMro7BSqt7Fa/vZdS5LAuqtEwbZdkpNFlTGcHm8XxiZo8PUIa80vS9zPvGZNoog8g1qq4o0wnjQmHxwqCvp0f3hJKeRoCY2dPDc0hcafpeh6/nT6QtqLRHxx10MmsqoX0iNfGWb2sTWlq4tAl0/koo1zMI0J7ZM0NhSogdfS/TivM8ZDtqaX4x8dOj5OMn8kYBG+k8VVBWJRCgmbkSqBfVpn19L6Pm0v46tYcIGam/mDXV2npi+AXf2CD29fo62sjDth4hb6ZpZvbmuBxRZV/f66iu4yl22gyXnUgcf6LdMZ0w8rCdi4xnc4iZPTs0GcKy9L2gqlU2ig1Om1n9aZ2w9XRsqmlpYVGh2FRlw92pimiZ7RSy5arXvr6XESXYGyM6pM8vaF6ERBFpWFxkFVa2dxJj43y0hatr5Bsas57SracQIGb21HAcIwb6XtASgTKWVf9ex962cGNw2qx/E0Ekk6Ov+UhE7O9T21vImkoPjtfStMz22ogc0VMufa+jGvOlci2o9KXImkqPhsfTNDN7coAgXsaGNraWevY88WRYWlg6Fs/RRZLJmspFsO02RcxsF0FH3ofbvURcnp2N/8cPB/cfybGYI62kKzWyoNK3SNZUejQ8myZm9uLQQHQsLy6m3rxF+NXU7JyzJLIYVGjDOLwrs6biW6KBazeEU6coNpWzI1Jq7bRnLhU5J99TtrZToy8hRoYw2cl2tLozFlQ5USP17ZI1lR4Nz6ZpZvbY0DB9r7WVxPOXECNDmOw4fUymLQp8UItBBb7N1SFBDnx6MmsqPtLENUa4xiaOy1hBO04hNWANAWJmazi5Vco5fS/zHnCBgNjeijLwqq354s13ZTxsB0PcwEW+q5vneeLnfDhVLI+YuWLQ5204S98rbxlHMgWBS/vr9K0LRvUzayq+7Q2cdcPDtj8a5cjDthFYlcinPXMlUDdu0zl9L+M2rT55b021nHr8RHr6TNnctPomlXMFAZqZXYHZQiOO63uZ02BkQaV/K727hoft5PCo0Njo7+/zdbSTNZUeocqmaWauLP5Hrbuj73XU3vEUO202sqDSlyVrKj0ankoTM3tgOKDvJaWy9L1yRcrOEmpqQaVvmqyp9Gh4Kk3LbA8Mh4v6Xka9tWJBpX+XrKn0aHgkTcxc+YFwVd/LqLsWLKj0r5I1lR4Nj6RpmV35gXBT38u8t+YWVPp3yZpKj4ZH0jQzV3Qg3Nf3Mu+ugb/O3JfImioXk4rnEDNXcggqpe9Vrj6TNVW5kCxLPcTMZYGxxEogRpJejSeejqQmp+XYeom1lPE1iOL20rqcxhZU+tbImkqPRsXTxMyVHAJ5eS3+mx/2f3dfXl2rJB3v22bWUbhD4n2e2f96ayr+VKvYc5bzN5u9QM+cRICY2Ul0jetW9w/gXD71aiLxbCz56q0Kx3oeuJh1FIJCcryA6JDaeZWsD1yTTSJZU2UjUtF7YubKwA9ORrAIhIxA4AhwssY2nrk0Tg4HNXLy+evMJZOsqXIxqUgOMbPrsL/375Ucfo6QEfLauprKdnDrOk3HGxQEPm1BJb+PDnn8cfYdWVNlI1Khezpndh34tL6XsrqCYBHJ8Tc4sHWdggINWj9tZhWRNVUBQN16TDOzW0i/b0fZ3ZVmppJj49L0jCck2O8JK/1/sqYqHbtyvkkzcznRtFKXvBZL/Pb+wfc/yKsO+ty0QolRGesWVPoayJpKj0ZF0jQzuwd7xmJ5di4xMpocs+rfC4te+PTRzIZxYYmez0dXmfvA/HXynI/3WZFps9YzOmHTM1h08G0tYm8/H2kpM2FUnSkCxMym8JT1YWkWy8w7F/PpA40OEx9d5SK2WAsqfbtYbmDRwakq920TMbMeGRfStMx2AeRME5q+18tXyeejcHOJCBWFLZZx3usX8efDJOnmhT0wBOyKjw+HNLE2WxRYI0Czphp7nXgxpqwtq8m4z0tHbtZ6UMWlaGZ2b/CU9Y2Dh08PHj3FwayVVjPnvQInr2+pSvqV9DLbyrv2yzCZNupRduJmiiPHW2I6YVo8nbVFdbfX1xDlAnXHi9CdUwgQMzuFrL7ejL7XxNvk+ERqeq4ofS9NywrKG+mzaLZ/5gL5vVvrWyxD2rIFlb4tphMmL62lXr0RT7UJAyGulZhZj5CDaWJmB8E9rLo0fa/M3jUddIJVZcW79WGjFUyQNVVFwCdmdhj20vS90trRoEzj51ztaESfSGtoOSvZtuKv0wA8sqYyAMbZbBKAOYuvdpiUiBer78V2y1CQRkJPH9uRKtu7fFMDAlBoR1aOXaWdNjNyGJ2pqbnU5IQ0Nw0xvmNkUsVHCNDMfISFE6mi9b3YnOwXNAm2ki14YjtSPOKbG31OS7lLOm1mGDI6D2NT+RoiYkMjYtlQOBsnvrHDOomZD6FwJJHR99Isli3pe2Uk2DynJlO+lKwts3MuNmciG4mch2XLsHPazIjIWFMFgmr/ed/p06IoEjOXbXjyVUTMnA+VcuQVre+VNSeDk42sqdJzpnZ0FAyoPO/UzrlIf525mDFrKi46IaZjUwnt7T6KTZULU/lyaM9cPiyP11SsvldmnxzwY042t3DGnKkdbsmq0Nrs9M6ZnTbz9fVIHO9f4TtGp7ywLD15Kg+PqBSbqjBmtkrQzGwLPqOXVVWVt7ZSY+OH+l5GJbPzsU82mZNZ6fScmVbSUrF/Zlpi2qo4V+6dXbu79++tqVIjY2JTk9JPsamcxZ9m5vLjC05WFCW1tr5fjL4Xm8fM52Q9rUxiDOUwzctPjtxbX9JOmu3PrcSgMmqFrKmMkCl7Ps3MZYfUh72iFIshiHFq/E0R+l7pecw6NUxizAX8fFMdFxDVA0su+KzXnynJZNq4seavM7d+sqbKxcShHGLm8gOLwMUIX6wFMZ5ftj7Tlp+OctSord7Tzga1hI2LrKlsgGf1VWJmq0hZKpfR94qlYLE8PIpQxoYSaUvVWSiENX1S0sRU4ZAqiuWXbDOZtiY5D4Gakutn1lR8c7P/6lWho50L13F+v4XuUZEiEKA9cxFgFS5akr5X4WqNS7CdttOSbaYTbkdyznb4pBNmPJJleEIzcxlAPKyiaH2vwzdLTrgj2RYE5h3Bt170ARXrGdvhM50woaWZb2rlm8hdfsmjnv9FYub8uJSWW6y+V2mt5L7F5j3NjUFasm3R33VuPU7nMJ0wLhQWLwz6enqcbu6k1U/L7PKMOPS9lO0tuUj/XuVpO63XCdclyv6BduwcEH1cuT2TpC2oNA1TCAVsXEwnLDkxJS8uAS6AZqMyejUbAWLmbERKuy9W36u0Vir1lv3TZkY52+Erq+vS9BRZU5V9NGmZXQZIS9f3KkPjuiqck2zbsKDS0YfDamjGSXBdkBx9ybdGyJrqGDi2b4iZ7UKo1/dKWPbvZbfVfO+zM2GuLgydbZhPltGPJ6vZ54fTX79PFG3uycmaKt/olSGPmNkuiCXqe9ltNt/7zkm22WkzYlCFtdNmizGo8pGo5ZE1lREyNvNpz2wTQJ/X9L2YZNsJnW07FlR6lNnOmayp9JiUJU0zsw0Y3df3skAsO9Hl6+uEaBTF5eVY2bTQSvLXmYfk9DwP9ThYUwmNDYGzPWpbhBODvuM+kvK8SFmmCBAzm8Jj/tB1fS9zcvRPsXP2955BDrxe+/a86IKLWVPxTfXh25fUM23kYVs/fKWliZlLw017qwL6XhaI5QJBvrHe39cXGLqGgBJybFPdi5esU32sQfx47e1rOaVaUOlry1hTTc0mR8eFaAt52NaDU1qamLk03LS3KqXvZU4xODkweCH40Y26r+9C1CQvLqrbW2WRbLPdOFpHwpwG60/Jw7Z1rAqWJGYuCFGeAkX798pTR/mzIKDSLCK6TgdvXgt98pF4aVCN74VuDql7e8qTUaiI2WyS7cY1jVFegOqodl5l27cJedi2OSj614mZ9WhYTXtT34vZNgU+OBf+7I7/5g2hpUWtCwXvfaZyXGp2SVpesdo903IZ/6Eog6A5smRatvBDNtszayr+VKvYc5bzkwFGYdzyliBmzguLWaZX9L1yaOQbGwOXL2IqFgcvil2deM75Bf/AgLq5nXg2qmztyLGY/fkZQSFZPA2bp82MfLKmyhnG0jPonLk47PT6XtbjORbXRqmlhfZo6O7nmIqFNu1QSrtguhisE86cqfvZ5+Gv7rDDKvak5H/LddqsJ4DphCFEJgJl6vMpXRQCNDMXBVep/r2Ka6To0jxUOKPRwJXB4LUrmIrBwJkqON4n8ny0zX/9Q8zJqdfvMDmXR7JdNI1mLzCdMKF9IjXxlm9rwwaBS6uamb1Dz3IQoJk5BxLTDK/pezFiwcmYeDH9YhLWOPl4eHT46MFe1D9w3t/fY8dbCGurXBZUepiZTpg0v5j46VHy8RMEzdQ/pbRFBGhmtggUDmQUnK8qMRf9e1kgTSfBHsL0i0nYJ2b71oK3LUiVhJ6uwNWLykZM2U/Y2jmXy4JK3ztmTbW2nhh+wTc2iH29vo427ScJKwu6LCNAYFmGypP6XkyCjSkXE68mCg6/X2DndAuKGeHPboQ+vSG0tuQ8LCKDzaJwVAALqvL66yYP20UMQ76ixMz5UMmXB32v1ORkcmxcmp6R4XYzmchXysU8nPf6RaE1Erj6AbbKwpkeeNUycXnJNdQLAwPYV4v9Z4QowsEGS6QVsyiCYCk+WFBpYu3jS/oS60y/ltYJW5dm56WpaWlhUTk4sFPbCXyXltlWB91r+l7svFc82x3++svgpx8fSbANOqRZMjRE+c6+wIdXlO295PgbOVb67xGTaaMp6H5nB541IMBitrK9kxgb56MtXF0j39Bo8S0qBgSImQt/Bh7V9wqH/We7MNP6r109JsE26hDUtgJ1fPupwNCH0LuSVmPK9nbpWlzlsqDKoVbzsD36mo9ExP4+tb2FrKlyEDLMoGW2ITSHD7yp7yW0REK3b4TufCR2dudKsA+Jz0poTHLjuv/WTbH7VHl3vFkNlXzLds4IuKcsvlN3Y6pU+vKhZBqq9EWamQsMnAf1vTJ2Uef6gtev+a9c4ltbcyXYRr3iwmGxq0uBJcb1y+rudmpiRt7YMipslp/216kVsOevM7cJsqbKxcRiDjGzGVB6fa/K+vfSU5mxi7p1Tbx82VyCrX+LpTlYSfC8v7OD/69fCmFhZyteGjOz02bUiURuK/ZzyJqqBAyJmc1A85B/L0Zm2mKJj7b6r1323xgSz5wpIS4E+FlobuJhU7Wze/D0tRzbwMq2aOG8E6fNuqEgayodGFaTtGc2Q8pr+l5Mgi10nRJhFDV0jYtEzKg3fgapEvdesg3jZ0z1xmXzP3HutJm1p7emIg/b+ccgJ5dm5hxIWIYiQ/SirC4nh5+7FM/RgBB9Nna8mgR78Lx4YUDo7OTg9ba0671k2z/0obyzW4pku6z+OnM7obem4iNNXGOEa2zCmiK3JOUcIlDq13BYQY0mwMkQpUKgCrEqjmSxEPVCRzMS7E9u+tvbRFG0+XFjYsf0LsYPhJev5aXFEuyTnTttZmhnPGwHQ9zARb6rG7t9m132wiA6RwMts/Njq+7uydD3Gh2Xpma9oO8FCTbUtvxMgn15UIw02/+yuVAI0zsmeUz1/rM9mPbzY1G5XGZNlRp/I72ZlBYWcFs5WqqgZZqZ8w8SxEL7958ePHgKsWr+Eu7m2pFgG1GKWQ7Tu6+9jfvkJpdMKNtxaF8ZFc6b77RMW9Np2U9I88upx0+EUED46BZfZ6h8npfCE5VJzJw93Bl9r7mF5IvXyfG3EKtml3D5/r0EOzB0JVCqBDsvyWBmjZ8jzb7Lg8rmdnJ0Ql5dK87amcm0UXs5/HXmIfK9h22ILYTGRn9/n6+jnayp8gCVzqJldjYyXtP3yuhgd5/S1LZuXIcKVzbF9u7tWDtnZNpwBoYp1LGLrKksQkvMfAQUUxGRNrdSY+OQe0lLy7D7dUgp4qjVQim+oR4++qCw5R+8AOWtsu9sYWiFw2oYXcH0Ci7E4EisEEW658yCSlX5YAjeTiAP0z0rW5KsqSxCScvsI6DAzJIkJVfXDn564h19L6G9rf6PPg/d/UyA2pZj4lwYXZXsx5PZVAPHsnjnPhqP4ymypjqOR547YuYjUNSDA3l1FYLT5PhEanpO3a+win9GB3vgbPDGNf+lQa7BwYNWvqGhdD+ecBsIw2Zc647MzGyEyJrq6Es1SNEy+wgYdXNTHh6RnjxFgEJwsqP7wKNWjVNMgg3zYxghQ2FLMwZ07nLAj2d5iSVrqoJ40sychui9vldq+DlCEyJAYdkiJxYcgXwFdJ69rgWvD/Htp2GKnK9g+fLs+PF0zIJK3z2yptKjkTdNzKzB4jV9r9zYFHkHr+yZTLKtDKzDqRh0wizugZ0+bdZ3k6yp9GhkpWmZrQHiNX0vTYI9qEmwxQ/OIzaFa06kS5Rsp0+blf0DH48YGiKCUWV9ZGW8ZdZUUAGQ5xaU7S0oBZSx8mqvimZmbQS9pu8FB5pwowlnmnCp6f4XVqxkm+lp+fxwS+T3QaWsHDGojHqtt6ai2FRZKJ10ZvaavheTYMOBJpx7wZkmXGpmDZgLt0yyraxtiGd7pcXlwtbODltQ6btM1lR6NLLSJ32Z7TV9L1cl2FnfwuFtWrLNt3cErw5at3ZmFlR8fb1DqiOH1CHBrKn2Hz5Nra0rigIFAf3TE5s+uTMzvgBcWfpeFfwOKiDBNurte8m25sdzZxc+hi358XTMX2cumcyaim/TrKmwKfBHoxwZYJxkV7saJ3tJ36tSEuxcVmE5iN4WuHUTR3TJ8dfSYinWzkY1289nu3SypspC8gTPzB7T98qNrpw1VC7fQoQuhjuVD85DqK7sbBb244nwPXtpe2OHLKj0/SdrKj0a79MnmJk9pu+Via5899OCsSnej50b/wun2uq++ZwPcQX9eDI5M2hCwg3KtGAaWlwOmJGFPrutnuvVnIeLJ1oGdCKZ2WP6XobRld3hCdNW+KZGqIVb8ePJ5Mw4ZNZsNv2ithKWnZVLZXTCpmcQAIxvaxF7+/lIBU7yTPFz9eFJZGav6Xux6MrhL+7kja7s6ueQ01ixEaqY9bVWjZOnzXoy5dXYwfc/cKrKfdtEzKxH5kSks/S9KthnnQTbMLpyBcnTmn7vx9NqhCpB0EJD4vQoKfkQLNL5S7OmGnvNt0QCt2+ovV0nOTbVSdxjeEffy3p0ZeeZwqwF6xGq3DxtZhSzvbq0sKSsLZ7w2FQni5mh7wWFXqj1Vt6/V5HRlc1YzflnLEIV/HjC24nX/HhqZh7xfXlpLfXqDRyqYtnlPB4ebeFk7Zm9o++V8exlObpyZT8f+P3TIlS1tYY/vsElDkz8eLppQaXHhKypgMZJYea0upcqbWwkh18kngxrq7J4JZ0wZ2JTWI+urP9yK5EGPwvNzf7LkGzvpabmYb2UX2fb4RhURl2n2FQni5mh75VYWIn/54Pk73+UYzGjz8Kd/NKiK7tDm1ErGWvnnf3gzDx2qjjjlWPZnpXctKDS08l2zqmpudTkxIm1pjoxM/PunjQ/nxp5kXwxnpqd038HLqftRFd2mdSs5mDtzPmbxZ6e4NAVyJDhZDuPzraLFlR68siaCmicFGZWVlZS//Gfyd/dV1ZW9R+B+2knYlO42Qu+uQkR3rUDoZevpaWlvOfJTKYNqpSduLOKI8d7fsJjU50AaTb0vZJxZW0pNfJcevFS3dk+/gG4eJeWYCO6sj42BaY7FykoQ1N8KATnJ+L5c2YRqtIWVJqvAhhguXid8NhUtT8zZ/S91hYh9NKcWrmlOZz7DTsdmyK3RUdy0tbOYmd36M5HPkkykWw70rpppSfcmqr2mRnO06VX6QgVCytekGBrgSkuDGixKXhXZy1TLijmIbN2bm3VFttbO/kjVLnirzMP0Sfbmqo6v6c8w2iYJS+vxX/zw96//wCBjWEhVx4wCTaOanFg61xsCle64jOPUMVOm5W9PSTcoUffCrOmSrwYV1ZX1ETcqaB2+ia9ka5lZlb3D6SFxdSricSzseSrSsZzzIqujANbHNt64wMokYoCfjxd9NeZ24FMbKq0NVVqclLZ3c0tU5M5tbzMlqEi8vhJ4qdH0vxiZSNUVLsE2+jTN/LjWanTZj2dJ9CaqkaZWVWwuFJia8nh54nhF/Ja5SJUOBZdWf/hVipt6MezQqfNehwy1lTQWrt6Vehox76g6g4O9N2xkq7RZTZc2CTi2DJh4wRFJWyirGDhRJkakWAbQWPqx9N9Cyo9mXqdMGluGmr5+qc1ma7NmRkS7NTbN4lnI6mpd3JsvYIjh9gU/vO9R9GVq1SCbYSg3o9nPA7YcdILLqqI3CuLRr1OmNDSzDe1Igx1Vpkau61NZkac9Pi//fv+7+7LS8uVHTB3oitXuI9pP54Q6cmLi+r21mGEKibTBm0V5G2mE8aFwuKFQV9PT2WBcrr1WmPmTISK2bnEyCj0DSsYY9nN6MpOfyXm9TM/nureDhYg6s6Wsp/InOczCyq87IK/TgMSmU6Y0DklLy4pfb21vXOutT0zs1iWpqcUKHtVNMayJ2JTGHziTmQjLBaCYyFEFgJlsfoh09aGoKKjwGjAx4BPouZ3zrU2MyubW6nh0cSz5xWUYOs8e7kVXdkJ7iyyToTFQnCsQGxD7H8hrcaYtbMqS5oYLBhCZZXZS6fl6nBdkBx9ybdGfA0RsaEROwJcRfavCorXGjPLq+vx//fjwe8qabHstdgU7nyGRn48GRqg4XAv7Q49+lYy1lSBoNp/3nf6tCiKxMx6fDyXhq8JeXnZCxbLXotN4dJQGfnxxPFV2l+nb11wiZKcZtjOmYtOiOnYVEJ7u68WY1PVzswMTj74TVqCvVJxCXY0dPfzoMdiU+R84Y5kZPx4HiTFl6/kJS1ClSPNFFkp00iTF5alJ0/FupD60S1i5iIhdK14JkLFYuLZcHJkFO4vXGs5qyEvx6bIItWhW+bHU0778VTW1lLTCz7NnjylNQe1vEpd762pUiNjQmND4GyP2hapPQ/btTAze8di2cuxKdzhI+xFs/x4SssrMJ/SeLkSFlT6XjNrKr6pPnz7knqmzdcQ5QJ1+gLVnq4FZvaCxbJOgu3V2BRufargZ70fT/UgoUopnP/7eJ87MaiMOpqJTTU1mxwdx0GaMBDiWomZjdCqUD6zWNb0vSpnsVwtsSncGaJjfjylVOr1WyUZ17wIiWJen2HuUMVaqWEP29U9M8NiGXaOhxbLFdT3YhLs4LUrwpmemtcBLsh7GT+eZ874bwzJe3FpeY2L72oxqBTVtRhURkTWsIft6mZm71gsezO6stEH7U4+F4kIQ9fE+IEAvdq9LaGpUU3JLvvrzO2p3pqqxjxsVzEzI0iFvL2dfDmeHHuJtZPqSszB3I+DJNi5mLAcLhQSOjvh8Ax+PDnpgFMUeXPHZX+dubTVsDVVtTIzOFnBx7Gzm5qeSc3MqpWLNUMS7FyGyTAzx0HXytfexn1yUwj7U28mNWb2xlWT1lRVy8z7+1IsJk29k2bnNTXsSjjQJQm2OWNCrI1LjDT7Lg/6Uil5ucLhB/TUZqyp2idSE2/5tjahpQW2X/oC1ZiuVmZWNjelp89Sj59I88uVssshCbaVL55JttXYFh/20DkQ0wmDczi4iMOBWeDWTTHcaaU7Xi5Thcyc8e8VS8FieXhUiZXq3yvtncuXaz3D85hyjbZ2HDSNAwGfoKkZ89EW/8V+//VrwpkzJME2+sqZZJvv7PQPnJNWVtWDlASnThX3RsKsqdbW4SKOb2wQ+3p9HW3asLobgsMItNLyq5CZy+Tfi3nn4gLZCGhOZOvrtUPRfBcfDvPRKFcXxkO+q8v/yUf+S4N8R0e+spR3hADz48k1pCdnWaqgBdURTVoorD24iIM+eeiz2+q5Xi5Y5xOr2MI/+1PWd9WbaUi+oFGEgeDrQjgQwh8n8NBG0P49vDDfcu9/ZTlOxc8toh+lr8MiPr/A14fyMHPAzzfAk2PgqKQuBd1jIdrKmJk7fRpHLxDYQs6jK0LJPAgwP57Q01bW1zg/z8+uVNDLYhZ9+JDwOWkfVUCpaivnav0K+fZo+Ks7gcF+DAwXCgiRei6sm0t5PyeGfbyWo/CCJAY5wS/ASl7vTw/cjWUVnz18WtQYUTCMHaP5o8wss3H0gqNUcDJ+JbK+D7rNRiDtx1Po7g59edvf3yktbSi7lQx2rydPOH0Kn5M+p0rTnFI5/0wlQgZFX7jR3d6SV1eVuOY/lQ8F+Eg9f5yZfe+ZWeUFWQT7+XFMcoyZS2yeXisdAYTjVHdjGDtlc085SJZeUVnf5OvqYOEMqUd6ma2bEsraiguVVSEzpwVgmu5+Ahr8WigjLh0q1XdsmY11NZbZ6QnTaJntArrURBYCaWNVHFNBw0eV3YzcnEXHsVvtiDEY5ER/tQvAqpCZjw0E3RAChEAGAZ3QiDAhBAiBakaAmLmaR49oJwR0CBAz68CgJCFQzQgQM1fz6BHthIAOAWJmHRiUJASqGQFi5moePaKdENAhQMysA4OShEA1I0DMXM2jR7QTAjoEiJl1YFCSEKhmBIiZq3n0iHZCQIcAMbMODEoSAtWMADFzNY8e0U4I6BAgZtaBQUlCoJoRIGau5tEj2gkBHQLEzDowKEkIVDMC2W6DdnZ2FhcX8W/FOwWHe7wQqAsFm+vDDfV1wfp60V+cFwjv9EUPpiAIwWCwsbExGo2Gw5pjQKPLCv2op7OzE/8aVXKYn0gmd3Z28be7u51MVD4Gen19fXtHR2NDo5jlzumQ4vcJ+zhYqeF9a9r/GJfWaBS0YaRAnv5Ryen9/f1YLAZKEomEbNm9j/XxBWHZzAxO/tdf/er169clE12uF0V/KFjX0t3RMXSue6C/t6OvT4xEiqrcO33Rk11XV9cWjV784INP79zp6enRP8pKW6H/4sWLf/Ldd1aYGWw8/noSI/vm9cv12FpWW+7f9vX1ff31z0B/Q319IGC2QrSPg5Ua9Ah0d3d//Mkd0HaqvV0Uy+PuG5z84McfX796tRaLxdPurvQtGqWtjy9qyGZm/H6vxdYnJt9ivK03aUSKnXwxEGbMvDnbvTDXd2Zlpbuvz+IsxNoF/XNzcy9evGA/h3aIKeO7GjO3ta1vbDZHWnkx0BJpDoeCeevf3Nwcfvbsp4cP8z5lmfvx+JdffGFSAI/YnDwxOfXTw0fDw88mXr+MrVU+uMTQ0NDVq1f7+/oU0+UJ6C8XDohnJEkSasNXsb29bQJad09P/CCxt7d388b1bn93wbWDSVV4tH+Q2NjcGht//eOPP42MDK+tFeAs/DSfPt0ZiTRjXWBec9bTbGZuaGi6cPHS0koMP2a4skq7ectjmS0uLs9Nvn0Vbm+LdvX23rp92+IsxOgEFpgDAQ06AgTdJN6kLfgVBD3x/WSwLpJI+W7duBo+nd/tdjKZjK2vm48CCqCYSXN4xOZkcPL/+ff/Pf5ybHdnGys981dceIpVSSJRgHJGhn0cMAfgy/nss8/2dveeDT/75S9/aY7q5tYWCiwtLDQ1NjY3RwquHczhAic/fvriwYMHP/70aHLiFbqD3xSTVxoaGq/fuIEfO6wLTp8+BeJNCusfZTNzIBhojbY1R1pkWcHuSl+0IulNnw+/KO/m56Jzc7vxODgT8y1WaBELS27sTjENgqUBnxf6cgxATgjXN4dC4f7erlPtUbgNzfXXi8gP6Kw55SiAYsdqzrnZ3Nx6Njz844P7o8+fz83N5DyvTAb2kBa3jvZxwGeDK5lM7e7twY3gixej6xsbS4uLRtgif3VlBZ6Zz549Kwj8pUuXOuC+M98YmWN3uCZ6+PDRw4cPJycnVlZWTF5pqKvrbG8fHDg39OGHt27dAjPX1xexyDfbq5i06vIj7bc5Fnv8+PFf//Vf/+Jv/ubdu3cuE1D25ra2Nl6MPH4+/Gh1bTmVSmEFWPYmDivEjumnB7//6cEPMQ9slQ+pcj+B1TLm2PPnB/7kT//022//2+lCMx5W4//wD7/8+7//n1NTU6WNEVsTPXz06P4Pv8VwY9DNew1O/vbevf/+zTdDly+Dk+0us80bq9RT/ITjhxwXWx3hlxJTblH750pRbtRu4uBg5WBxYX52PRbb3cOKowHrCKPCNvPj+/G52RnvzMk2u1Py65haIWnraO+4ceNGKiXNzs4d7CfwA7e/r3lfz72wrx4bG8O49PWdxbsXzp/HAURusbw5h3Mydjc//fjjm1cvV5bNNq3hcF002nblw2t3Pv30o1u3Orq7ipqTGQ3VMTPr8VpYWPjVr34Fkbv5tkf/imfTyVQKG6qNzc1UEgF36HIDAUx3mPQuXRq8+9XPPvn0c7CQeaszMzN/93d/97d/+7czs7PmJfVP2Zz8w4OfIKewsiYCGSDm7n/55tKtj3Bwg4NYfW0W09l7ZouvVbAYpJHPnj3D7uLm1as4uCrh/LmCxGc1ra04DnAlZKXAvjfrRbotGQEstnHa1N3VhQkwhbOb1aX9/T2cd2Arl7fOra2t58+fY/88cO4cgioUlNfo52QrcopgKNTc3HLhg0uf3Lnz0e3bOLKptyAPyktq9TEz2z8vzMzMvnrV19FRwvlzXiAo80QhgH3N4MUBKbm/sjSXSiZevXoFoYwJAu+mp3/xi1/g35//1V9dv37dpKT+7AASx4JyCnDy1Wu3Pv30s49v3wZJIMykcvNH2cwc8Ptx8tl3tvfmzZunELHWrUtFcEdF2Yvvx9Y3sVfZj+9Kqfy/lGz/DKngy5cvT3V0hKNRo18y7Kt7zpzBYWYgEHDpaEoLUYmwOUlsg7e3tkz2Y27harWdhoYGCIRwRhAKBp3bveupuXz5ckdHux+7WH00P30JJ9PBQCAYbT0/cO7jjz/G/jl+kEpKqslXp60HNzcxp5vIa6RUCmfT8+/e/eHRIytzMj5LyNgHBs6Dho8/vn1+oL8t2mqn09nMjG33uf7eSHPDtauDUEiwU3VR74JFcXLwbmb+wcOnkDoszE7ubK2b1LC+vf3wxYtwWxuY9bRBOYgroGV1aXBQUxoxWEQZvFpiNqLwYRsMrZu3UzNYm2GzVC1iJ3AyBLyYczra26BoWWL/i3mtqampp7sH4uVy6UsW03imLPtCAsG6jV1pP+kr+NUxeQ0+p7z6DuDklXfvXj7+w/f/9zd/eDZccE4GJ3/wwQeffHL7q7ufYsrBJFpCF/SvZDMzfrHao62tkebz5/r15ZxO41gb62cwcyDcjFniecA3O82Z7GTiBwdzKyvzKyvYcxrRBg1baCbgMipQ9nz8JOEMYzW2fqZ3BnPOzPTbWGwV/UJ+2dsqV4WYhzFFdHV24mDziy++KPZss1xkVKQe9oUkUsri6pYsyaoUx8LbZLyYvAaIYUkIgg/PUyRJhh7O/PzC8OPHPz54MPp8xPxH/Ajzmzfv3Pnk8uDFLgPFoaJgyWZmrHn8fi36aVG12C+sqj6IGQf6zzY3N5/tbmtpEP8Q8hfcydhvt7w1MPSirS1YrO7tbD573IvTJ2zGcKhW3obKWBs4GRNUV1fXme7uEs42y0hJparCdvKPvv68ud4f316O72JzZDheTF4DBWGQuryycjg/g5OXV1eHx8b+6Te/wRp7cbWAtizD/MLFi3fv3fvk44+tn3iZQ5TNtNBDcmfLlJesYDDQ0tLsF9SN9dXNrc35hQVzsUTeSiqYydCrw6FhOIz9D5Y5FSSmqKaxdsAaB38ifsl9Tp14F0WSa4Vhk9fQ3yunDhbmZyQpBd0kox9fDaX9fSy2mT4s5mcoZsK+ant7Z3hk5Pf370P3fWJ62oTyzJzc1YV19aeffvrh1atlXDlmM7MJHa49qm9oODdwfmZ2/vEfHrvWaNkb0n7F16ESEkOi7JWXsUI227ybnhl+8bIpEoVAFZKhMtZfLVUx/W3sY6G/YK7CoJ+f305Nwb4K+8F/+sd/fPSHR1ARNe8vm5PByX/+Z38GqZd1vWvzatnT/MzM9gDYISwtLcIA1kpFNsuI6Z0bdsv4nVMUtbGpqaW1xR8ozoA5iwZAjFHBv1n5Tt/i9xvjjR/4xYUFo994p2mwXj+bbRYXFp88foz00uKcTZlqwabZWENyfrjnLPiKCwXAxrj24nGsojF80BXBCXPedvXz89b2NuyrICoGJ0+8eZO3vD4TvYaUEbIJcDLMG/WP7KfzM3NmD/Bs+Ne//rc3Fki0TweOkSB3O3/hAn7nTp0+nTgog1kPOLkittkYWs3aaWEBx5L2kXGnBoheIXsffzna1AjrYmd3B2ysh65fP9xzutNHK630njnzl3/5l5AgQOsL5xEmr7D5Gack+MzSP4IF5mRWFWr+7rvvvrp3r7xzMqs8m5nTNp/yyurK06fPvv/++//3299a+b0x6bPFR5ArQgwwt7CA3zmcvDU1t2xv70kpW0LgStkzYzY2EaJYBMTlYtBPhgDWXAZbLpLYWGPFlyUTLlf9durRZs6hIeyE37yZgATBxLKKzc8Ya9hXWWkRkt3e3l7sk2/fvl32OZkRkM3MWGDDTGxiYvJf/+Vf7j+4X3APYKUbVsrof+fO9g1AJwZmaPF9w2MnK3VCPF4Re2YMM7pjhcKTWYaNda5M2AtosPMIcN0ff/ddQ2Pjr3/9v8o1maHOv/iLv/jqq68w+TvU02xmTv9Cz42Pv4RLhHJ1wwrp+t+5jY0tSYYarG9319Z2F5JDrOjA0vh68NNghQyXy+DTgcodLp6rPouXkrFiY81kwpilb9642d3dg2GqoPbIYV/YeUS0NYqdLXQG1hbmOSykV1dhS39YptiEph7T0wOFzbt372Lax3AXW4PF8tnMnFYrH8FuwWj3b7FeO8WYrS9qKGj/aacVL7wLUVB9XV19XVgok9c4L3TKIg1sfgZLz87Pn11dxRF3ubxtWSTApBh+WUAPjIp933zTXlf369/+9o0N8Qc4+c///H/cu3e3v79f++F2TH01m5mxsp2dX8Lfvr0lrglSBR8xW9+Cxaq6AIRMkJ2eOnWqpaUF6pOw5HGuO40NDRcuXMChvckO0LnWjWpm8/P2zg4Ewnt7canVzJOOUSVVkY+xbmuLtrW1Q/vAUSWO7G8IOm27cXknLqdk+FehyykEwMnQy4WxQefp007rJ8M73Lff/nG4rr6MO0CncPFGvcVqdJlTzYwoWzUl6SaIwcwL23mazcw4401IStJZPzZ2CK76dzM6QNCFhmHazZuwHArYO04viAgktEPXhyRZWltd9fsDm1s7kMEqUlJxzIiaiQDxb0HavFYgo2W9sGBRo8sK/cxjiaZD0dqKNTZObSApsPJisWWymbnY96l8sQgwHaCy6+WakJHZAV67hjL95z8YfvF6fm4uEd+AUYHJW3YeVePhHOtvZk4eGbGo0WUFJagtwcoAx10oDEFsQX/pVurMWyabmeGBMChCxGq2Sxf9gXBdQ6Q5cqojCpPJvPUWm4lf8YNEQtM5M/aZWGydVsozf4hQOBODQd4V8xLskE91nLpx80Z59XJNOnvoWwMhQVpa21uinRlmTtk6+TNpMb63t7q2Bm0KEz0qk9cr8ujYnPz73xfU6GIrLEiq4SADX6+JL24m6kOnYL+ElS8sLmGnBesO6ISXt6fZzCwKXEOd0Fgn+AXtcCjvBU7uOjMwNHT9m599DuPnvGWKzYTD8ZXVNfgDcnlfx/whXrp8ub693V/nhh0vllitLS1YXTuhA2QCO5uf6+vqe8/0xOP7ipxUHVtma2eBe3tQaC2oR2VCsMuPip2T2QoLUo+vv/4aeMKPJ+zwTWhm8zO8IMB2GhaXsNOCdYdJ+RIeZTMzz/mCIhcQOUzRRtVhNjt/tu/20NAXn3128eKAUbGi8iHPhBEZzI0K+kwsqtqChTXfq2fPoi+tfX3h5uLC3xSsPG8B2DmjUaf3yblNs/kZKykXHMhgpoJdN+YuOIvG4RO+Y7B3LkkeySl2TmZkMy1raHTdu/cVOjg9PQ2/FCbrSjY/a/5Mkj44Vo5GmlBPeefnbGa2gm+kPnz9XDdCQCGkm5XyVsqweYP5TBTEgMs+OrD+weoXwQuskGqzDDYwXtCOsNkL89fRRxyoQtl+cHAQDp48bpde7JzM+s60rO9++SXC30HEBV/czZFIwXUlPBPBn8lTTnOTHtvcLu/8XAozwzsXfPrgz8hNl/lI530qCHwoBEeFIUcP4vI2jUyEk4AmFggwKkD5RSEAvzHgEMRYctS5f1Ek5S1c8pzcd/asZvkEF3yDg6gZXy58caOzOC/Arcn8zHhndsYnq5rOX3nn51KYGdpt0ImJc1zvlSvwDAqa7F8AAgszoPDgh++t+Bm23yLV4BwCbK6bfPt2ZGQE0zJWoc61Zafm0uZkcPLPf/7ze/fuwe0ua11/XtDW3l6p+bkUZoaeKrTb6p89u3L//o4NnVX9MDBXeBCAjb7wUDwkPYXVmAYXQaSMMwJs2AqGpCpjBw/FmROTk970FWNnTr73FUwY70F5+xAx/XkBMis1P5fCzKwPzJNw8z//82GXbCXSTmrx2eEww1Y99LIOAWbRjbiwsK+GQajuibNJ/UGjsy2VWnu55mR9+xWfn0tnZjDes00EaaTLuwhgZkZ0dUR4Bld7027MfexKm5OZNfIXX34JF3z6OVlPf8Xn59KZWd8NShMC1YJAaXOydWvkCs7PxMzV8hESnXYRKG1OLtYauYLzMzGz3U+E3q8WBEqbk0uzRq7I/JzNzFBSa2ltxR8UlSo1SKABFoJoHVs+L2sOVQqfWmoX6jrQh4NemqMW3bbn5C+vX78BOq0rQRybn3H+XMhjSVnOn7OZ2Qs+q5mtLz5Zj2sO1RJTVaovCP2B6FZOR9KwMyffvfslLM/ByeDPYlHKzM+WPZbY1A/LZua6cB3WFfAeeOHiB9CV393ZxpEGpkccNhTbkxLKszkZZ/FXrlyBE9Oqi2hRQpdP4Ct6e6MPP/wQBiflsr3LBbO0OZnFxPzoo9tQ87px42bJuvSZ+bm7y3/rFhSyVxFHUhAQ8xCR0nJJZTmqnEQ4FzjhC4UCrU1hxNmw7l08m5nZbwnTkW5oiky8fjk3O+Oa41g2J4OTh67fWFuLVXVEC6PRony9vRF8wSMWpHOYlDYns5iY8L93/vxAaXOyvkfB+npEER9KZ/V2diJ6KWIe6gtkpeFAQpX2pibG/nl7ZXbmrXXv4tnMfLjWR1z5psbG7s6OeTCzWyoHbW1t2qLgwgWEp4mtxeZmp9vaolldZbfMkToKs921UZmC8Zkv9PVpsepbWsTKyQjyEo/MSHOz0ZHm4SsogGKHt1kJgAOImFN+N5VGssjIumVjB7NT2BuBPHBLVoGsW/s4YEOOyb+7qwt/WZXnvcUX+NW9r+CepaO9DH5gYEYuRiL4zOCVE7JxxCFG9NK87drM5KBHmVsFlrgIAI+/3V3EPdeW2e4oAyLSGr4/LHKwdU8mkibBcayEOGH+LqDcAkGaUXzmxrq60+3tMGfDzydAz4Wigjmg/N27d5sGQVIYYfjQsSsB/XnpRMcros6Zl5jDTDZ2+Kxhb9TY0Ij5w8wVhs9nBwe2zEYNJt/SIWGHCXyCcJymfRXlcwDMQrFjRLDMNolDfEgDS4AdrC+z8zNzVo10SwgQAt5H4AT5Xvf+YBCFhIAdBIiZ7aBH7xICHkKAmNlDg0GkEAJ2ECBmtoMevUsIeAgBYmYPDQaRQgjYQYCY2Q569C4h4CEEiJk9NBhECiFgBwFiZjvo0buEgIcQIGb20GAQKYSAHQSIme2gR+8SAh5CgJjZQ4NBpBACdhAgZraDHr1LCHgIAWJmDw0GkUII2EGAmNkOevQuIeAhBIiZPTQYRAohYAcBYmY76NG7hICHEPj/E6LAocjcVegAAAAASUVORK5CYII=;" vertex="1" parent="1">
          <mxGeometry x="560" y="410.00000000000006" width="78" height="78" as="geometry" />
        </mxCell>
      </root>
    </mxGraphModel>
  </diagram>
</mxfile>
